<svg width="1920" height="1080" viewBox="0 0 1920 1080" fill="none" xmlns="http://www.w3.org/2000/svg">
<circle cx="1795.5" cy="1020.5" r="9" stroke="#333333"/>
<circle cx="1795.5" cy="1020.5" r="9" stroke="#333333"/>
<circle cx="1795.5" cy="1020.5" r="6" stroke="#333333"/>
<circle cx="1795.5" cy="1020.5" r="3" stroke="#333333"/>
<path d="M1819.5 1020.5C1819.5 1025.47 1815.47 1029.5 1810.5 1029.5L1795.5 1029.5C1790.53 1029.5 1786.5 1025.47 1786.5 1020.5C1786.5 1015.53 1790.53 1011.5 1795.5 1011.5H1810.5C1815.47 1011.5 1819.5 1015.53 1819.5 1020.5Z" stroke="#333333"/>
<path d="M1737.71 1025.1C1739.93 1025.1 1740.96 1023.99 1740.96 1022.71C1740.96 1019.62 1735.87 1020.91 1735.87 1018.86C1735.87 1018.12 1736.48 1017.52 1737.91 1017.52C1738.66 1017.52 1739.48 1017.74 1740.22 1018.21L1740.61 1017.25C1739.92 1016.77 1738.9 1016.5 1737.91 1016.5C1735.7 1016.5 1734.7 1017.61 1734.7 1018.9C1734.7 1022.02 1739.78 1020.73 1739.78 1022.78C1739.78 1023.51 1739.16 1024.08 1737.71 1024.08C1736.63 1024.08 1735.56 1023.67 1734.94 1023.1L1734.49 1024.04C1735.16 1024.66 1736.42 1025.1 1737.71 1025.1ZM1745.52 1023.8C1745.28 1023.99 1744.96 1024.1 1744.62 1024.1C1743.99 1024.1 1743.63 1023.72 1743.63 1023.03V1019.59H1745.45V1018.64H1743.63V1017.25H1742.47V1018.64H1741.39V1019.59H1742.47V1023.08C1742.47 1024.36 1743.21 1025.07 1744.49 1025.07C1745.01 1025.07 1745.53 1024.93 1745.88 1024.63L1745.52 1023.8ZM1748.14 1019.71V1018.64H1747.03V1025H1748.19V1021.83C1748.19 1020.44 1748.95 1019.68 1750.19 1019.68C1750.27 1019.68 1750.36 1019.68 1750.45 1019.7V1018.58C1749.34 1018.58 1748.55 1018.96 1748.14 1019.71ZM1754.3 1025.07C1756.21 1025.07 1757.6 1023.72 1757.6 1021.82C1757.6 1019.92 1756.21 1018.58 1754.3 1018.58C1752.39 1018.58 1750.99 1019.92 1750.99 1021.82C1750.99 1023.72 1752.39 1025.07 1754.3 1025.07ZM1754.3 1024.06C1753.08 1024.06 1752.15 1023.18 1752.15 1021.82C1752.15 1020.46 1753.08 1019.59 1754.3 1019.59C1755.52 1019.59 1756.44 1020.46 1756.44 1021.82C1756.44 1023.18 1755.52 1024.06 1754.3 1024.06ZM1762.32 1018.58C1761.42 1018.58 1760.63 1018.92 1760.1 1019.6V1016.1H1758.95V1025H1760.06V1023.99C1760.57 1024.71 1761.39 1025.07 1762.32 1025.07C1764.18 1025.07 1765.54 1023.76 1765.54 1021.82C1765.54 1019.88 1764.18 1018.58 1762.32 1018.58ZM1762.23 1024.06C1761.02 1024.06 1760.09 1023.18 1760.09 1021.82C1760.09 1020.46 1761.02 1019.59 1762.23 1019.59C1763.45 1019.59 1764.38 1020.46 1764.38 1021.82C1764.38 1023.18 1763.45 1024.06 1762.23 1024.06ZM1769.62 1025.07C1771.52 1025.07 1772.92 1023.72 1772.92 1021.82C1772.92 1019.92 1771.52 1018.58 1769.62 1018.58C1767.71 1018.58 1766.3 1019.92 1766.3 1021.82C1766.3 1023.72 1767.71 1025.07 1769.62 1025.07ZM1769.62 1024.06C1768.39 1024.06 1767.47 1023.18 1767.47 1021.82C1767.47 1020.46 1768.39 1019.59 1769.62 1019.59C1770.84 1019.59 1771.75 1020.46 1771.75 1021.82C1771.75 1023.18 1770.84 1024.06 1769.62 1024.06ZM1776.09 1025.07C1777.79 1025.07 1778.84 1024.34 1778.84 1023.19C1778.84 1020.72 1774.81 1021.94 1774.81 1020.44C1774.81 1019.94 1775.3 1019.56 1776.31 1019.56C1776.93 1019.56 1777.57 1019.7 1778.15 1020.07L1778.64 1019.16C1778.09 1018.8 1777.15 1018.58 1776.32 1018.58C1774.69 1018.58 1773.67 1019.35 1773.67 1020.49C1773.67 1023.02 1777.69 1021.78 1777.69 1023.21C1777.69 1023.75 1777.25 1024.08 1776.18 1024.08C1775.35 1024.08 1774.49 1023.8 1773.95 1023.42L1773.47 1024.33C1773.99 1024.75 1775.04 1025.07 1776.09 1025.07Z" fill="#333333"/>
<path d="M1797.16 74V63.948H1796.11V74H1797.16ZM1799.99 69.702C1799.99 68.33 1800.93 67.336 1802.06 67.336C1803.27 67.336 1803.91 68.134 1803.91 69.548V74H1804.89V69.212C1804.89 67.462 1803.9 66.482 1802.37 66.482C1801.31 66.482 1800.41 67.098 1799.93 68.008V66.622H1799.01V74H1799.99V69.702ZM1808.21 74V67.448H1810.4V66.622H1808.21V65.95C1808.21 65.082 1808.65 64.69 1809.45 64.69C1809.7 64.69 1809.92 64.704 1810.15 64.802V63.99C1809.89 63.892 1809.61 63.836 1809.26 63.836C1807.98 63.836 1807.23 64.592 1807.23 65.95V66.622H1805.51V67.448H1807.23V74H1808.21ZM1817.65 70.304C1817.65 68.092 1816.18 66.496 1814.14 66.496C1812.11 66.496 1810.64 68.092 1810.64 70.304C1810.64 72.53 1812.11 74.14 1814.14 74.14C1816.18 74.14 1817.65 72.53 1817.65 70.304ZM1811.62 70.304C1811.62 68.498 1812.71 67.35 1814.14 67.35C1815.58 67.35 1816.64 68.498 1816.64 70.304C1816.64 72.138 1815.58 73.286 1814.14 73.286C1812.69 73.286 1811.62 72.124 1811.62 70.304Z" fill="#333333"/>
<line x1="1782.5" y1="64" x2="1782.5" y2="74" stroke="#333333"/>
<path d="M1640.22 74H1641.32L1637.43 63.948H1636.28L1632.38 74H1633.41L1634.48 71.214H1639.15L1640.22 74ZM1634.79 70.36L1636.83 65.068L1638.85 70.36H1634.79ZM1649.2 70.304C1649.2 68.036 1647.94 66.482 1645.98 66.482C1644.86 66.482 1643.92 67.112 1643.43 68.19V63.948H1642.46V74H1643.39V72.446C1643.89 73.524 1644.84 74.14 1645.98 74.14C1647.94 74.14 1649.2 72.572 1649.2 70.304ZM1643.42 70.276C1643.46 68.414 1644.44 67.336 1645.81 67.336C1647.25 67.336 1648.2 68.428 1648.2 70.304C1648.2 72.18 1647.25 73.286 1645.81 73.286C1644.41 73.286 1643.37 72.124 1643.42 70.276ZM1656.11 71.942C1656.11 70.878 1655.45 70.276 1653.98 69.996L1652.87 69.786C1651.84 69.59 1651.33 69.268 1651.33 68.512C1651.33 67.77 1652.01 67.224 1653.08 67.224C1654.25 67.224 1655 67.812 1655.1 68.862H1656.01C1655.9 67.392 1654.78 66.482 1653.08 66.482C1651.52 66.482 1650.38 67.35 1650.38 68.582C1650.38 69.716 1651.19 70.346 1652.52 70.598L1653.59 70.808C1654.68 71.018 1655.13 71.354 1655.13 72.082C1655.13 72.852 1654.53 73.398 1653.18 73.398C1651.98 73.398 1651.11 72.81 1651.03 71.69H1650.1C1650.24 73.258 1651.47 74.14 1653.2 74.14C1655.13 74.14 1656.11 73.202 1656.11 71.942ZM1661.25 73.93V73.062C1660.96 73.188 1660.71 73.244 1660.4 73.244C1659.57 73.244 1659.01 72.852 1659.01 71.704V67.448H1661.32V66.622H1659.01V64.438H1658.03V66.622H1656.31V67.448H1658.03V71.914C1658.03 73.51 1658.97 74.14 1660.2 74.14C1660.55 74.14 1660.88 74.084 1661.25 73.93ZM1663.52 70.052C1663.52 68.442 1664.71 67.462 1666.28 67.532V66.524C1665.05 66.482 1663.95 67.21 1663.46 68.302V66.622H1662.54V74H1663.52V70.052ZM1671.69 74H1672.55V69.198C1672.55 67.49 1671.52 66.482 1669.82 66.482C1668.15 66.482 1666.99 67.602 1666.96 69.212H1667.84C1667.87 67.966 1668.61 67.266 1669.82 67.266C1670.94 67.266 1671.61 67.98 1671.61 69.226V69.842C1670.96 69.786 1670.56 69.758 1670.08 69.758C1667.86 69.758 1666.71 70.514 1666.71 71.956C1666.71 73.286 1667.69 74.14 1669.21 74.14C1670.38 74.14 1671.27 73.58 1671.69 72.656V74ZM1667.65 71.928C1667.65 70.906 1668.44 70.416 1670.14 70.416C1670.63 70.416 1671.1 70.444 1671.61 70.486V71.144C1671.61 72.53 1670.73 73.426 1669.37 73.426C1668.32 73.426 1667.65 72.824 1667.65 71.928ZM1680.43 71.144H1679.42C1679.21 72.348 1678.5 73.286 1677.18 73.286C1675.81 73.286 1674.86 72.054 1674.86 70.304C1674.86 68.568 1675.81 67.35 1677.18 67.35C1678.5 67.35 1679.23 68.288 1679.42 69.478H1680.43C1680.17 67.728 1678.96 66.482 1677.18 66.482C1675.22 66.482 1673.88 68.092 1673.88 70.304C1673.88 72.516 1675.22 74.154 1677.18 74.154C1678.96 74.154 1680.18 72.894 1680.43 71.144ZM1685.59 73.93V73.062C1685.3 73.188 1685.05 73.244 1684.74 73.244C1683.91 73.244 1683.35 72.852 1683.35 71.704V67.448H1685.66V66.622H1683.35V64.438H1682.37V66.622H1680.65V67.448H1682.37V71.914C1682.37 73.51 1683.31 74.14 1684.54 74.14C1684.89 74.14 1685.21 74.084 1685.59 73.93ZM1688.24 64.914C1688.24 64.494 1687.9 64.186 1687.44 64.186C1686.98 64.186 1686.64 64.494 1686.64 64.914C1686.64 65.348 1686.98 65.656 1687.44 65.656C1687.9 65.656 1688.24 65.348 1688.24 64.914ZM1687.93 74V66.622H1686.95V74H1687.93ZM1696.41 70.304C1696.41 68.092 1694.94 66.496 1692.89 66.496C1690.86 66.496 1689.39 68.092 1689.39 70.304C1689.39 72.53 1690.86 74.14 1692.89 74.14C1694.94 74.14 1696.41 72.53 1696.41 70.304ZM1690.37 70.304C1690.37 68.498 1691.46 67.35 1692.89 67.35C1694.33 67.35 1695.4 68.498 1695.4 70.304C1695.4 72.138 1694.33 73.286 1692.89 73.286C1691.45 73.286 1690.37 72.124 1690.37 70.304ZM1698.78 69.702C1698.78 68.33 1699.72 67.336 1700.85 67.336C1702.06 67.336 1702.7 68.134 1702.7 69.548V74H1703.68V69.212C1703.68 67.462 1702.69 66.482 1701.16 66.482C1700.1 66.482 1699.2 67.098 1698.73 68.008V66.622H1697.8V74H1698.78V69.702ZM1710.93 71.942C1710.93 70.878 1710.27 70.276 1708.8 69.996L1707.69 69.786C1706.66 69.59 1706.15 69.268 1706.15 68.512C1706.15 67.77 1706.83 67.224 1707.9 67.224C1709.07 67.224 1709.82 67.812 1709.92 68.862H1710.83C1710.72 67.392 1709.6 66.482 1707.9 66.482C1706.34 66.482 1705.2 67.35 1705.2 68.582C1705.2 69.716 1706.01 70.346 1707.34 70.598L1708.41 70.808C1709.5 71.018 1709.95 71.354 1709.95 72.082C1709.95 72.852 1709.35 73.398 1708 73.398C1706.8 73.398 1705.93 72.81 1705.85 71.69H1704.92C1705.06 73.258 1706.29 74.14 1708.02 74.14C1709.95 74.14 1710.93 73.202 1710.93 71.942Z" fill="#333333"/>
<path d="M1738.97 63.948H1737.92L1734.65 72.796L1731.4 63.948H1730.31L1734.06 74H1735.21L1738.97 63.948ZM1741.4 64.914C1741.4 64.494 1741.06 64.186 1740.6 64.186C1740.14 64.186 1739.8 64.494 1739.8 64.914C1739.8 65.348 1740.14 65.656 1740.6 65.656C1741.06 65.656 1741.4 65.348 1741.4 64.914ZM1741.09 74V66.622H1740.11V74H1741.09ZM1748.4 74H1749.31V63.948H1748.35V68.162C1747.84 67.112 1746.89 66.482 1745.79 66.482C1743.81 66.482 1742.55 68.036 1742.55 70.304C1742.55 72.572 1743.8 74.14 1745.79 74.14C1746.93 74.14 1747.9 73.524 1748.4 72.446V74ZM1743.53 70.304C1743.53 68.428 1744.5 67.336 1745.94 67.336C1747.33 67.336 1748.32 68.414 1748.36 70.276C1748.4 72.124 1747.37 73.286 1745.94 73.286C1744.5 73.286 1743.53 72.18 1743.53 70.304ZM1757.41 71.508H1756.46C1756.22 72.684 1755.36 73.37 1754.12 73.37C1752.7 73.37 1751.73 72.278 1751.7 70.542H1757.4C1757.57 68.176 1756.2 66.482 1754.1 66.482C1752.14 66.482 1750.71 68.092 1750.71 70.248C1750.71 72.614 1752.09 74.14 1754.15 74.14C1755.83 74.14 1757.08 73.132 1757.41 71.508ZM1754.08 67.238C1755.4 67.238 1756.29 68.218 1756.36 69.87H1751.7C1751.79 68.316 1752.75 67.238 1754.08 67.238ZM1765.47 70.304C1765.47 68.092 1764 66.496 1761.95 66.496C1759.92 66.496 1758.45 68.092 1758.45 70.304C1758.45 72.53 1759.92 74.14 1761.95 74.14C1764 74.14 1765.47 72.53 1765.47 70.304ZM1759.43 70.304C1759.43 68.498 1760.53 67.35 1761.95 67.35C1763.4 67.35 1764.46 68.498 1764.46 70.304C1764.46 72.138 1763.4 73.286 1761.95 73.286C1760.51 73.286 1759.43 72.124 1759.43 70.304Z" fill="#333333"/>
<path d="M1541.16 74V63.948H1540.11V74H1541.16ZM1543.99 69.702C1543.99 68.33 1544.93 67.336 1546.06 67.336C1547.27 67.336 1547.91 68.134 1547.91 69.548V74H1548.89V69.212C1548.89 67.462 1547.9 66.482 1546.37 66.482C1545.31 66.482 1544.41 67.098 1543.93 68.008V66.622H1543.01V74H1543.99V69.702ZM1556.13 71.942C1556.13 70.878 1555.48 70.276 1554.01 69.996L1552.9 69.786C1551.86 69.59 1551.36 69.268 1551.36 68.512C1551.36 67.77 1552.03 67.224 1553.11 67.224C1554.27 67.224 1555.03 67.812 1555.13 68.862H1556.04C1555.92 67.392 1554.8 66.482 1553.11 66.482C1551.54 66.482 1550.41 67.35 1550.41 68.582C1550.41 69.716 1551.22 70.346 1552.55 70.598L1553.61 70.808C1554.71 71.018 1555.15 71.354 1555.15 72.082C1555.15 72.852 1554.55 73.398 1553.21 73.398C1552 73.398 1551.14 72.81 1551.05 71.69H1550.13C1550.27 73.258 1551.5 74.14 1553.22 74.14C1555.15 74.14 1556.13 73.202 1556.13 71.942ZM1561.28 73.93V73.062C1560.99 73.188 1560.74 73.244 1560.43 73.244C1559.6 73.244 1559.04 72.852 1559.04 71.704V67.448H1561.35V66.622H1559.04V64.438H1558.06V66.622H1556.34V67.448H1558.06V71.914C1558.06 73.51 1559 74.14 1560.23 74.14C1560.58 74.14 1560.9 74.084 1561.28 73.93ZM1567.09 74H1567.94V69.198C1567.94 67.49 1566.92 66.482 1565.21 66.482C1563.55 66.482 1562.39 67.602 1562.36 69.212H1563.24C1563.27 67.966 1564.01 67.266 1565.21 67.266C1566.33 67.266 1567.01 67.98 1567.01 69.226V69.842C1566.36 69.786 1565.96 69.758 1565.48 69.758C1563.25 69.758 1562.11 70.514 1562.11 71.956C1562.11 73.286 1563.09 74.14 1564.61 74.14C1565.77 74.14 1566.67 73.58 1567.09 72.656V74ZM1563.04 71.928C1563.04 70.906 1563.84 70.416 1565.54 70.416C1566.03 70.416 1566.5 70.444 1567.01 70.486V71.144C1567.01 72.53 1566.12 73.426 1564.77 73.426C1563.72 73.426 1563.04 72.824 1563.04 71.928ZM1570.65 69.702C1570.65 68.33 1571.59 67.336 1572.72 67.336C1573.93 67.336 1574.57 68.134 1574.57 69.548V74H1575.55V69.212C1575.55 67.462 1574.56 66.482 1573.03 66.482C1571.97 66.482 1571.07 67.098 1570.6 68.008V66.622H1569.67V74H1570.65V69.702ZM1581.05 73.93V73.062C1580.75 73.188 1580.5 73.244 1580.19 73.244C1579.37 73.244 1578.81 72.852 1578.81 71.704V67.448H1581.12V66.622H1578.81V64.438H1577.83V66.622H1576.1V67.448H1577.83V71.914C1577.83 73.51 1578.76 74.14 1580 74.14C1580.35 74.14 1580.67 74.084 1581.05 73.93ZM1586.85 74H1587.71V69.198C1587.71 67.49 1586.69 66.482 1584.98 66.482C1583.31 66.482 1582.15 67.602 1582.12 69.212H1583C1583.03 67.966 1583.77 67.266 1584.98 67.266C1586.1 67.266 1586.77 67.98 1586.77 69.226V69.842C1586.13 69.786 1585.72 69.758 1585.24 69.758C1583.02 69.758 1581.87 70.514 1581.87 71.956C1581.87 73.286 1582.85 74.14 1584.38 74.14C1585.54 74.14 1586.43 73.58 1586.85 72.656V74ZM1582.81 71.928C1582.81 70.906 1583.61 70.416 1585.3 70.416C1585.79 70.416 1586.27 70.444 1586.77 70.486V71.144C1586.77 72.53 1585.89 73.426 1584.53 73.426C1583.48 73.426 1582.81 72.824 1582.81 71.928ZM1590.41 69.702C1590.41 68.33 1591.35 67.336 1592.49 67.336C1593.69 67.336 1594.33 68.134 1594.33 69.548V74H1595.31V69.212C1595.31 67.462 1594.32 66.482 1592.79 66.482C1591.73 66.482 1590.83 67.098 1590.36 68.008V66.622H1589.43V74H1590.41V69.702ZM1600.6 65.768L1602.08 63.892H1600.92L1599.51 65.768H1600.6ZM1603.36 71.508H1602.41C1602.17 72.684 1601.3 73.37 1600.07 73.37C1598.64 73.37 1597.67 72.278 1597.65 70.542H1603.34C1603.51 68.176 1602.14 66.482 1600.04 66.482C1598.08 66.482 1596.65 68.092 1596.65 70.248C1596.65 72.614 1598.04 74.14 1600.1 74.14C1601.78 74.14 1603.02 73.132 1603.36 71.508ZM1600.03 67.238C1601.34 67.238 1602.24 68.218 1602.31 69.87H1597.65C1597.73 68.316 1598.7 67.238 1600.03 67.238ZM1610.3 71.942C1610.3 70.878 1609.65 70.276 1608.18 69.996L1607.07 69.786C1606.03 69.59 1605.53 69.268 1605.53 68.512C1605.53 67.77 1606.2 67.224 1607.28 67.224C1608.44 67.224 1609.2 67.812 1609.3 68.862H1610.21C1610.09 67.392 1608.97 66.482 1607.28 66.482C1605.71 66.482 1604.58 67.35 1604.58 68.582C1604.58 69.716 1605.39 70.346 1606.72 70.598L1607.78 70.808C1608.88 71.018 1609.32 71.354 1609.32 72.082C1609.32 72.852 1608.72 73.398 1607.38 73.398C1606.17 73.398 1605.31 72.81 1605.22 71.69H1604.3C1604.44 73.258 1605.67 74.14 1607.39 74.14C1609.32 74.14 1610.3 73.202 1610.3 71.942Z" fill="#333333"/>
<path d="M106.804 75H108.176L103.15 69.96L108.05 64.948H106.832L102.072 69.792V64.948H101.036V75H102.072V70.268L106.804 75ZM110.515 75V64.948H109.535V75H110.515ZM118.993 71.304C118.993 69.092 117.523 67.496 115.479 67.496C113.449 67.496 111.979 69.092 111.979 71.304C111.979 73.53 113.449 75.14 115.479 75.14C117.523 75.14 118.993 73.53 118.993 71.304ZM112.959 71.304C112.959 69.498 114.051 68.35 115.479 68.35C116.921 68.35 117.985 69.498 117.985 71.304C117.985 73.138 116.921 74.286 115.479 74.286C114.037 74.286 112.959 73.124 112.959 71.304ZM126.621 75H127.601L129.771 67.622H128.777L127.083 73.628L125.165 67.622H124.199L122.281 73.614L120.573 67.622H119.607L121.763 75H122.757L124.689 68.924L126.621 75ZM131.808 70.702C131.808 69.33 132.746 68.336 133.88 68.336C135.084 68.336 135.728 69.134 135.728 70.548V75H136.708V70.212C136.708 68.462 135.714 67.482 134.188 67.482C133.124 67.482 132.228 68.098 131.752 69.008V67.622H130.828V75H131.808V70.702Z" fill="#333333"/>
<rect x="701" y="163" width="517" height="753" fill="#C4C4C4"/>
</svg>
