<?xml version="1.0" encoding="utf-8"?>
<!-- Generator: Adobe Illustrator 24.0.2, SVG Export Plug-In . SVG Version: 6.00 Build 0)  -->
<svg version="1.1" id="Calque_1" xmlns="http://www.w3.org/2000/svg" xmlns:xlink="http://www.w3.org/1999/xlink" x="0px" y="0px"
	 viewBox="0 0 1920 1080" style="enable-background:new 0 0 1920 1080;" xml:space="preserve">
<style type="text/css">
	.st0{font-family:'MyriadPro-Regular';}
	.st1{font-size:34.5726px;}
	.st2{font-family:'TimesNewRomanPS-ItalicMT';}
	.st3{font-size:22px;}
	.st4{fill:none;stroke:#000000;stroke-width:4;stroke-miterlimit:10;}
	.st5{fill:none;stroke:#000000;stroke-width:2;stroke-miterlimit:10;}
	.st6{fill:none;stroke:#000000;stroke-miterlimit:10;}
</style>
<text transform="matrix(1 0 0 1 549.6953 286.9268)" class="st0 st1">Video</text>
<text transform="matrix(1 0 0 1 393.6953 424.3584)" class="st0 st1">Impressivité / expressivité</text>
<text transform="matrix(1 0 0 1 1159.6953 438.3584)" class="st0 st1">Organisation / curation</text>
<text transform="matrix(1 0 0 1 1071.6953 711.3584)" class="st2 st3">Naviguer dans ce corpus</text>
<text transform="matrix(1 0 0 1 1071.6953 739.3584)" class="st2 st3">Que mettre en évidence ?</text>
<text transform="matrix(1 0 0 1 567.6953 668.3584)"><tspan x="0" y="0" class="st2 st3">Ce même principe  </tspan><tspan x="0" y="26.4" class="st2 st3">en une interaction</tspan></text>
<rect x="527" y="239" class="st4" width="128" height="72"/>
<text transform="matrix(1 0 0 1 1279.6953 300.9268)" class="st0 st1">Corpus</text>
<text transform="matrix(1 0 0 1 893.7964 114.9268)"><tspan x="0" y="0" class="st0 st1">Notre</tspan><tspan x="14" y="41.5" class="st0 st1">Site</tspan></text>
<rect x="1266" y="253" class="st4" width="128" height="72"/>
<g>
	<line x1="934" y1="178" x2="934" y2="943"/>
	<g>
		<line class="st5" x1="934" y1="178" x2="934" y2="940.6"/>
		<g>
			<path d="M924.4,926.9c0.5-0.3,1.1-0.2,1.4,0.3l8.2,12.9l8.2-12.9c0.3-0.5,0.9-0.6,1.4-0.3s0.6,0.9,0.3,1.4l-9.1,14.2
				c-0.2,0.3-0.5,0.5-0.8,0.5s-0.7-0.2-0.8-0.5l-9.1-14.2c-0.1-0.2-0.2-0.4-0.2-0.5C923.9,927.4,924.1,927.1,924.4,926.9z"/>
		</g>
	</g>
</g>
<g>
	<g>
		<path class="st6" d="M1308,488c0,107.1-302.5,67.1-303.5,302.3"/>
		<g>
			<path d="M999.9,783.4c0.2-0.1,0.5-0.1,0.7,0.2l4,6.5l4.2-6.4c0.2-0.2,0.5-0.3,0.7-0.1c0.2,0.2,0.3,0.5,0.1,0.7l-4.7,7
				c-0.1,0.1-0.3,0.2-0.4,0.2s-0.3-0.1-0.4-0.2l-4.4-7.2c-0.1-0.1-0.1-0.2-0.1-0.3C999.6,783.6,999.7,783.5,999.9,783.4z"/>
		</g>
	</g>
</g>
<g>
	<g>
		<path class="st6" d="M560.5,488c0,107.1,302.5,67.1,303.5,302.3"/>
		<g>
			<path d="M859,783.6c0.2-0.2,0.5-0.1,0.7,0.1l4.2,6.4l4-6.5c0.1-0.2,0.5-0.3,0.7-0.2c0.2,0.1,0.3,0.5,0.2,0.7l-4.4,7.2
				c-0.1,0.1-0.2,0.2-0.4,0.2s-0.3-0.1-0.4-0.2l-4.7-7c-0.1-0.1-0.1-0.2-0.1-0.3C858.8,783.8,858.9,783.7,859,783.6z"/>
		</g>
	</g>
</g>
</svg>
